<svg xmlns="http://www.w3.org/2000/svg" viewBox="0 0 60 80">
  <path d="M30 20 C 50 45, 55 55, 40 55 C 30 55, 30 45, 30 45 C 30 45, 30 55, 20 55 C 5 55, 10 45, 30 20 Z" fill="#0d0d0d" stroke="#c9a227" stroke-width="2" stroke-linejoin="round"/>
  <path d="M28 50 C 25 65, 15 65, 15 70 L 45 70 C 45 65, 35 65, 32 50 Z" fill="#0d0d0d" stroke="#c9a227" stroke-width="2" stroke-linejoin="round"/>
  <path d="M30 18 C 25 10, 28 5, 30 8 C 32 5, 35 10, 30 18 Z" fill="#c9a227" />
  <path d="M25 12 C 20 15, 23 18, 28 16" fill="none" stroke="#c9a227" stroke-width="1.5" stroke-linecap="round"/>
  <path d="M35 12 C 40 15, 37 18, 32 16" fill="none" stroke="#c9a227" stroke-width="1.5" stroke-linecap="round"/>
  <path d="M25 40 C 20 45, 20 50, 25 50 C 30 50, 28 45, 25 40 Z" fill="none" stroke="#c9a227" stroke-width="1.5" />
  <path d="M35 40 C 40 45, 40 50, 35 50 C 30 50, 32 45, 35 40 Z" fill="none" stroke="#c9a227" stroke-width="1.5" />
  <path d="M30 28 L 30 45" fill="none" stroke="#c9a227" stroke-width="1.5" />
</svg>
