<svg xmlns="http://www.w3.org/2000/svg" viewBox="0 0 60 80">
  <path d="M30 60 C 30 60, 10 40, 10 25 C 10 15, 20 10, 30 20 C 40 10, 50 15, 50 25 C 50 40, 30 60, 30 60 Z" fill="#722f37" stroke="#c9a227" stroke-width="2" stroke-linejoin="round"/>
  <path d="M15 25 C 0 35, 15 55, 30 68" fill="none" stroke="#c9a227" stroke-width="1.5" stroke-linecap="round"/>
  <path d="M45 25 C 60 35, 45 55, 30 68" fill="none" stroke="#c9a227" stroke-width="1.5" stroke-linecap="round"/>
  <path d="M22 28 C 22 40, 30 50, 30 50" fill="none" stroke="#c9a227" stroke-width="1.5" stroke-linecap="round"/>
  <path d="M38 28 C 38 40, 30 50, 30 50" fill="none" stroke="#c9a227" stroke-width="1.5" stroke-linecap="round"/>
  <path d="M30 10 L 32 14 L 30 18 L 28 14 Z" fill="#c9a227" />
</svg>
