<svg xmlns="http://www.w3.org/2000/svg" viewBox="0 0 60 80">
  <path d="M10 80 C 10 65, 50 65, 50 80 Z" fill="#722f37" />
  <path d="M15 65 L10 50 L25 55 L35 45 L45 55 Z" fill="#722f37" stroke="#c9a227" stroke-width="2" stroke-linejoin="round"/>
  <path d="M20 55 C 10 50, 15 30, 30 25 C 45 25, 45 45, 35 55 Z" fill="#722f37" />
  <path d="M15 35 C 15 45, 35 48, 42 35 C 42 30, 35 30, 30 35 C 25 30, 15 28, 15 35 Z" fill="#722f37" stroke="#c9a227" stroke-width="2" stroke-linejoin="round"/>
  <path d="M18 37 Q 22 35 25 37" fill="none" stroke="#c9a227" stroke-width="2" stroke-linecap="round"/>
  <path d="M31 38 Q 35 36 38 38" fill="none" stroke="#c9a227" stroke-width="2" stroke-linecap="round"/>
  <path d="M20 28 C 10 15, 5 25, 12 35" fill="none" stroke="#c9a227" stroke-width="2.5" stroke-linecap="round"/>
  <path d="M35 26 C 45 15, 55 20, 48 35" fill="none" stroke="#c9a227" stroke-width="2.5" stroke-linecap="round"/>
  <path d="M28 25 C 25 10, 35 10, 32 25" fill="none" stroke="#c9a227" stroke-width="2.5" stroke-linecap="round"/>
</svg>
