<svg xmlns="http://www.w3.org/2000/svg" viewBox="0 0 60 80">
  <path d="M12 80 C 15 65, 45 65, 48 80 Z" fill="#722f37" />
  <path d="M22 65 C 30 70, 35 70, 42 62" fill="none" stroke="#c9a227" stroke-width="2" />
  <path d="M22 60 C 25 50, 35 50, 40 60 Z" fill="#722f37" />
  <path d="M18 55 C 10 45, 15 25, 30 25 C 45 25, 45 45, 35 55 Z" fill="#722f37" stroke="#c9a227" stroke-width="2" stroke-linejoin="round"/>
  <path d="M18 45 C 25 45, 30 40, 25 35" fill="none" stroke="#c9a227" stroke-width="2" />
  <path d="M25 25 L 22 15 L 28 20 L 32 12 L 36 20 L 40 16 L 38 25 Z" fill="#722f37" stroke="#c9a227" stroke-width="1.5" stroke-linejoin="round"/>
  <path d="M38 35 C 50 25, 55 40, 45 50 C 50 45, 55 35, 40 38" fill="none" stroke="#c9a227" stroke-width="1.5" />
</svg>
