<svg xmlns="http://www.w3.org/2000/svg" viewBox="0 0 60 80">
  <path d="M30 5 L 55 25 L 55 60 L 30 80 L 5 60 L 5 25 Z" fill="none" stroke="#00f0ff" stroke-width="1.5" stroke-linejoin="miter"/>
  <path d="M30 10 L 50 28 L 50 57 L 30 75 L 10 57 L 10 28 Z" fill="none" stroke="#00f0ff" stroke-width="1" stroke-linejoin="miter"/>
  <path d="M30 20 L 15 45 L 15 55 L 25 55 L 30 45 L 35 55 L 45 55 L 45 45 Z" fill="#e0e4f0" stroke="#00f0ff" stroke-width="2" stroke-linejoin="miter"/>
  <path d="M30 20 L 30 45 L 20 50 M 30 45 L 40 50" fill="none" stroke="#00f0ff" stroke-width="1.5" />
  <path d="M25 55 L 20 70 L 40 70 L 35 55 Z" fill="#e0e4f0" stroke="#00f0ff" stroke-width="1.5" stroke-linejoin="miter"/>
  <path d="M25 15 L 30 10 L 35 15" fill="none" stroke="#00f0ff" stroke-width="2" stroke-linejoin="miter"/>
  <path d="M5 42 L 10 42 M 50 42 L 55 42" fill="none" stroke="#00f0ff" stroke-width="1.5" />
  <path d="M15 65 L 20 65 M 40 65 L 45 65" fill="none" stroke="#00f0ff" stroke-width="1.5" />
</svg>
