<svg xmlns="http://www.w3.org/2000/svg" viewBox="0 0 60 80">
  <path d="M22 20 L 26 10 L 34 10 L 38 20 L 34 30 L 26 30 Z" fill="#e0e4f0" stroke="#00f0ff" stroke-width="1.5" stroke-linejoin="miter"/>
  <path d="M10 35 L 14 25 L 22 25 L 26 35 L 22 45 L 14 45 Z" fill="#e0e4f0" stroke="#00f0ff" stroke-width="1.5" stroke-linejoin="miter"/>
  <path d="M38 45 L 34 35 L 38 25 L 46 25 L 50 35 L 46 45 Z" fill="#e0e4f0" stroke="#00f0ff" stroke-width="1.5" stroke-linejoin="miter"/>
  <path d="M26 35 L 30 30 L 34 35 L 30 40 Z" fill="#e0e4f0" />
  <path d="M26 42 L 20 70 L 40 70 L 34 42 Z" fill="#e0e4f0" stroke="#00f0ff" stroke-width="1.5" stroke-linejoin="miter"/>
  <path d="M28 28 L 32 28 L 32 32 L 28 32 Z" fill="#00f0ff" />
  <path d="M24 38 L 28 38 L 28 42 L 24 42 Z" fill="#00f0ff" />
  <path d="M32 38 L 36 38 L 36 42 L 32 42 Z" fill="#00f0ff" />
</svg>
