<svg xmlns="http://www.w3.org/2000/svg" viewBox="0 0 60 80">
  <path d="M5 80 L 5 65 L 20 55 L 40 55 L 55 65 L 55 80 Z" fill="#e0e4f0" />
  <path d="M5 65 L 15 70 L 25 60 M 55 65 L 45 70 L 35 60" fill="none" stroke="#00f0ff" stroke-width="1.5" stroke-linejoin="miter"/>
  <path d="M25 70 L 30 65 L 35 70 L 35 76 L 30 80 L 25 76 Z" fill="none" stroke="#00f0ff" stroke-width="1.5" stroke-linejoin="miter"/>
  <path d="M15 50 L 25 58 L 40 55 L 45 30 L 28 25 L 12 30 Z" fill="#e0e4f0" stroke="#00f0ff" stroke-width="1.5" stroke-linejoin="miter"/>
  <path d="M12 38 L 35 34 L 35 42 L 15 44 Z" fill="#00f0ff" />
  <path d="M12 28 L 8 10 L 22 22 L 30 5 L 38 20 L 50 12 L 42 28 Z" fill="#e0e4f0" stroke="#00f0ff" stroke-width="1.5" stroke-linejoin="miter"/>
</svg>
