<svg xmlns="http://www.w3.org/2000/svg" viewBox="0 0 60 80">
  <path d="M8 80 L 12 65 L 25 70 L 35 70 L 48 65 L 52 80 Z" fill="#e0e4f0" stroke="#00f0ff" stroke-width="1.5" stroke-linejoin="miter"/>
  <path d="M20 55 L 28 65 L 38 60 L 42 35 L 30 25 L 15 35 Z" fill="#e0e4f0" />
  <path d="M15 35 L 30 45 L 42 35 L 38 55 L 20 50 Z" fill="none" stroke="#00f0ff" stroke-width="1.5" stroke-linejoin="miter"/>
  <path d="M20 38 L 24 35 L 28 38 L 24 41 Z" fill="#00f0ff" />
  <path d="M15 25 L 25 10 L 35 25 L 30 15 L 20 15 Z" fill="#e0e4f0" stroke="#00f0ff" stroke-width="1.5" stroke-linejoin="miter"/>
  <path d="M25 18 L 30 5 L 38 15 L 32 20 Z" fill="#e0e4f0" stroke="#00f0ff" stroke-width="1.5" stroke-linejoin="miter"/>
  <path d="M45 40 L 55 30 M 42 45 L 52 35 M 48 55 L 58 45" fill="none" stroke="#00f0ff" stroke-width="1.5" />
</svg>
